{"title":"Troy.2004.DVDRip.XviD.RoSubbed.iNT","uid":6666387,"size":1384272171,"categoryP":"video","categoryS":"movies","magnet":"?xt=urn:btih:5e948cc5b5b384bbcbff2cac7242c34636fd284c&amp;dn=Troy.2004.DVDRip.XviD.RoSubbed.iNT&amp;tr=udp%3A%2F%2Ftracker.openbittorrent.com%3A80&amp;tr=udp%3A%2F%2Fopen.demonii.com%3A1337&amp;tr=udp%3A%2F%2Ftracker.coppersurfer.tk%3A6969&amp;tr=udp%3A%2F%2Fexodus.desync.com%3A6969","seeders":0,"leechers":0,"uploader":"nicukent","files":4,"time":1315701096,"description":"Troy.2004.DVDRip.XviD.RoSubbed.iNT\n\n\n\niMDB: http://www.imdb.com/title/tt0332452/\nSubtitles: Romanian\n\n\nFormat                           : AVI\nFormat/Info                      : Audio Video Interleave\nFile size                        : 662 MiB\nDuration                         : 1h 14mn\nOverall bit rate                 : 1 234 Kbps\nWriting application              : VirtualDubMod 1.5.10.1 (build 2366/release)\nWriting library                  : VirtualDubMod build 2366/release\n\nVideo\nID                               : 0\nFormat                           : MPEG-4 Visual\nFormat settings, BVOP            : 1\nFormat settings, QPel            : No\nFormat settings, GMC             : No warppoints\nFormat settings, Matrix          : Default (H.263)\nMuxing mode                      : Packed bitstream\nCodec ID                         : XVID\nCodec ID/Hint                    : XviD\nDuration                         : 1h 14mn\nBit rate                         : 1 097 Kbps\nWidth                            : 672 pixels\nHeight                           : 288 pixels\nDisplay aspect ratio             : 2.35:1\nFrame rate                       : 24.000 fps\nColor space                      : YUV\nChroma subsampling               : 4:2:0\nBit depth                        : 8 bits\nScan type                        : Progressive\nCompression mode                 : Lossy\nBits/(Pixel*Frame)               : 0.236\nStream size                      : 588 MiB (89%)\nWriting library                  : DivX 5.1.1 (Maupiti) (UTC 2003-11-19)\n\nAudio\nID                               : 1\nFormat                           : MPEG Audio\nFormat version                   : Version 1\nFormat profile                   : Layer 3\nMode                             : Joint stereo\nMode extension                   : MS Stereo\nCodec ID                         : 55\nCodec ID/Hint                    : MP3\nDuration                         : 1h 14mn\nBit rate mode                    : Constant\nBit rate                         : 128 Kbps\nChannel(s)                       : 2 channels\nSampling rate                    : 44.1 KHz\nCompression mode                 : Lossy\nStream size                      : 68.6 MiB (10%)\nAlignment                        : Split accross interleaves\nInterleave, duration             : 41 ms (0.98 video frame)\nInterleave, preload duration     : 500 ms\nWriting library                  : LAME3.96\n\nGenre: Action, Drama, History ","torrent":{"xt":"urn:btih:5e948cc5b5b384bbcbff2cac7242c34636fd284c","amp;dn":"Troy.2004.DVDRip.XviD.RoSubbed.iNT","amp;tr":["udp%3A%2F%2Ftracker.openbittorrent.com%3A80","udp%3A%2F%2Fopen.demonii.com%3A1337","udp%3A%2F%2Ftracker.coppersurfer.tk%3A6969","udp%3A%2F%2Fexodus.desync.com%3A6969"],"infoHash":"5e948cc5b5b384bbcbff2cac7242c34636fd284c","infoHashBuffer":{"type":"Buffer","data":[94,148,140,197,181,179,132,187,203,255,44,172,114,66,195,70,54,253,40,76]},"announce":[],"urlList":[]}}